<svg width="750" height="703" viewBox="0 0 750 703" fill="none" xmlns="http://www.w3.org/2000/svg">
<g id="login 1" clip-path="url(#clip0)">
<g id="Group">
<path id="Vector" d="M87.7335 564.135L63.8227 564.645L51.6851 564.845C47.621 564.937 43.5387 564.846 39.4746 564.955H38.6727V564.135L38.5633 543.69V542.779H39.4746L63.604 542.889C71.6593 542.889 79.6964 543.107 87.7335 543.198H88.2438V543.69C88.2438 547.152 88.0798 550.596 88.0069 554.004L87.7335 564.135ZM87.7335 564.135L87.4784 553.84C87.4784 550.432 87.2779 547.08 87.2414 543.745L87.7335 544.237C79.6964 544.346 71.6593 544.529 63.604 544.547L39.4746 544.656L40.3858 543.745V564.135L39.5657 563.333C43.5387 563.333 47.5116 563.333 51.5029 563.424L63.4947 563.625L87.7335 564.135Z" fill="#EBEBEB"/>
<path id="Vector_2" d="M60.8157 589.845L36.9049 590.355L24.7672 590.556C20.7031 590.556 16.6208 590.556 12.5567 590.665H11.7548V589.845L11.6455 569.456V568.544H12.5567L36.6862 568.654C44.7233 568.654 52.7786 568.872 60.8157 568.963H61.3259V569.456C61.3259 572.918 61.1801 576.361 61.089 579.751L60.8157 589.845ZM60.8157 589.845L60.5605 579.55C60.4694 576.143 60.36 572.79 60.3236 569.456L60.8157 569.947C52.7786 570.057 44.7233 570.239 36.6862 570.257L12.5567 570.367L13.4679 569.456L13.3768 589.845L12.5567 589.044C16.5297 589.044 20.5027 589.044 24.4939 589.135L36.4857 589.335L60.8157 589.845Z" fill="#EBEBEB"/>
<path id="Vector_3" d="M517.854 337.169L493.925 337.679L481.787 337.88C477.742 337.88 473.659 337.88 469.595 337.88H468.793V337.06L468.702 316.67V315.923H469.613L493.743 316.032C501.78 316.032 509.835 316.233 517.872 316.342H518.383V316.834C518.383 320.296 518.237 323.74 518.146 327.129L517.854 337.169ZM517.854 337.169L517.599 326.856C517.599 323.467 517.398 320.114 517.362 316.779L517.854 317.271C509.817 317.271 501.762 317.563 493.725 317.563L469.595 317.69L470.506 316.779L470.397 337.169L469.595 336.349C473.568 336.349 477.541 336.349 481.514 336.458L493.506 336.659L517.854 337.169Z" fill="#EBEBEB"/>
<path id="Vector_4" d="M490.936 362.879L467.007 363.39L454.87 363.59C450.824 363.681 446.741 363.59 442.677 363.681H441.857V362.861V342.471V341.56H442.768L466.898 341.67C474.935 341.67 482.972 341.87 491.027 341.979H491.519V342.471C491.519 345.933 491.355 349.359 491.282 352.766L490.936 362.879ZM490.936 362.879L490.681 352.566C490.59 349.177 490.462 345.824 490.426 342.49L490.936 342.982C482.881 343.073 474.844 343.273 466.807 343.273L442.677 343.401L443.589 342.49L443.479 362.879L442.677 362.059C446.65 362.059 450.623 362.059 454.596 362.169L466.588 362.369L490.936 362.879Z" fill="#EBEBEB"/>
<path id="Vector_5" d="M464.109 337.169L440.199 337.679L428.061 337.88C423.997 337.88 419.933 337.88 415.851 337.88H415.049V337.06L414.939 316.67V315.923H415.851L439.98 316.032C448.035 316.032 456.072 316.233 464.109 316.342H464.62V316.834C464.62 320.296 464.456 323.74 464.383 327.129L464.109 337.169ZM464.109 337.169L463.909 326.856C463.909 323.467 463.709 320.114 463.672 316.779L464.164 317.271C456.127 317.271 448.09 317.563 440.035 317.563L415.905 317.69L416.816 316.779L416.725 337.169L415.905 336.349C419.896 336.349 423.851 336.349 427.842 336.458L439.834 336.659L464.109 337.169Z" fill="#EBEBEB"/>
<path id="Vector_6" d="M736.659 589.845L712.73 590.355L700.593 590.556C696.547 590.556 692.465 590.556 688.4 590.665H687.58V589.845L687.489 569.456V568.544H688.4L712.53 568.654C720.567 568.654 728.622 568.872 736.659 568.963H737.151V569.456C737.151 572.918 737.006 576.361 736.915 579.751L736.659 589.845ZM736.659 589.845L736.404 579.55C736.404 576.143 736.186 572.79 736.167 569.456L736.659 569.947C728.622 570.057 720.567 570.239 712.53 570.257L688.4 570.367L689.312 569.456L689.202 589.845L688.4 589.044C692.373 589.044 696.346 589.044 700.319 589.135L712.311 589.335L736.659 589.845Z" fill="#EBEBEB"/>
<path id="Vector_7" d="M709.742 91.1618L685.813 91.672L673.675 91.7995C669.629 91.7995 665.547 91.7995 661.483 91.9088H660.735V91.0889V70.6991V69.9338H661.665L685.794 70.0614C693.831 70.0614 701.868 70.2618 709.924 70.3529H710.416V70.8449C710.416 74.307 710.252 77.7508 710.179 81.1582L709.742 91.1618ZM709.742 91.1618L709.486 80.8667C709.395 77.4775 709.268 74.1065 709.231 70.772L709.742 71.2822C701.686 71.3733 693.649 71.5555 685.612 71.5738L661.483 71.756L662.394 70.8449L662.284 91.2347L661.483 90.4329C665.456 90.4329 669.41 90.4329 673.402 90.524L685.393 90.7245L709.742 91.1618Z" fill="#EBEBEB"/>
<path id="Vector_8" d="M736.659 116.872L712.73 117.382L700.593 117.583C696.547 117.583 692.465 117.583 688.4 117.692H687.58V116.872L687.489 96.4824V95.5713H688.4L712.53 95.6988C720.567 95.6988 728.622 95.8993 736.659 95.9904H737.151V96.4824C737.151 99.9444 737.006 103.388 736.915 106.796L736.659 116.872ZM736.659 116.872L736.404 106.577C736.404 103.188 736.186 99.8169 736.167 96.4824L736.659 96.9743C728.622 97.0837 720.567 97.2659 712.53 97.2841L688.4 97.3934L689.312 96.4824L689.202 116.872L688.4 116.07C692.373 116.07 696.346 116.07 700.319 116.161L712.311 116.362L736.659 116.872Z" fill="#EBEBEB"/>
<path id="Vector_9" d="M87.7335 91.1618L63.8227 91.672L51.6851 91.7995C47.621 91.7995 43.5387 91.7995 39.4746 91.9088H38.6727V91.0889L38.5633 70.6991V69.9338H39.4746H63.604C71.6593 69.9338 79.6964 70.1343 87.7335 70.2254H88.2438V70.7174C88.2438 74.1794 88.0798 77.6233 88.0069 81.0307L87.7335 91.1618ZM87.7335 91.1618L87.4784 80.8667C87.4784 77.4775 87.2779 74.1065 87.2414 70.772L87.7335 71.2822C79.6964 71.3733 71.6593 71.5555 63.604 71.5738L39.4746 71.756L40.3858 70.8449V91.2347L39.5657 90.4329C43.5387 90.4329 47.5116 90.4329 51.5029 90.524L63.4947 90.7245L87.7335 91.1618Z" fill="#EBEBEB"/>
<path id="Vector_10" d="M456.019 196.532C500.986 151.574 500.986 78.6818 456.019 33.7236C411.053 -11.2347 338.148 -11.2347 293.182 33.7236C248.216 78.6818 248.216 151.574 293.182 196.532C338.148 241.49 411.053 241.49 456.019 196.532Z" fill="#FFF8ED"/>
<path id="Vector_11" d="M467.735 129.596C475.733 78.1766 440.526 30.0099 389.097 22.013C337.668 14.016 289.492 49.2171 281.494 100.637C273.496 152.057 308.703 200.223 360.132 208.22C411.561 216.217 459.736 181.016 467.735 129.596Z" stroke="white" stroke-width="4" stroke-miterlimit="10"/>
<path id="Vector_12" d="M340.455 120.17C340.455 126.693 332.691 132.706 323.652 132.706C314.612 132.706 306.831 126.876 306.831 120.17H340.455Z" fill="#C7C7C7"/>
<path id="Vector_13" d="M337.266 118.622C334.714 112.827 332.327 106.978 329.976 101.111C328.773 98.1953 327.643 95.2435 326.477 92.2916L322.996 83.4725H324.272L320.809 92.2916C319.642 95.2435 318.513 98.1953 317.31 101.111C314.922 106.978 312.535 112.827 310.02 118.622C312.025 112.627 314.193 106.668 316.362 100.728C317.419 97.758 318.567 94.8062 319.679 91.8543L323.032 82.9805L323.67 81.2859L324.308 82.9805L327.607 91.7996C328.7 94.7515 329.867 97.7034 330.924 100.673C333.092 106.668 335.243 112.627 337.266 118.622Z" fill="#263238"/>
<path id="Vector_14" d="M341.403 117.893H305.865V120.17H341.403V117.893Z" fill="#A6A6A6"/>
<path id="Vector_15" d="M442.386 120.17C442.386 126.693 434.622 132.706 425.564 132.706C416.507 132.706 408.761 126.876 408.761 120.17H442.386Z" fill="#C7C7C7"/>
<path id="Vector_16" d="M439.178 118.622C436.645 112.827 434.239 106.978 431.888 101.111C430.667 98.1953 429.556 95.2435 428.389 92.2916L424.908 83.4725H426.184L422.721 92.2916C421.537 95.2435 420.425 98.1953 419.204 101.111C416.835 106.978 414.429 112.827 411.914 118.622C413.919 112.627 416.069 106.668 418.238 100.728C419.313 97.758 420.461 94.8062 421.573 91.8543L424.926 82.9805L425.564 81.2859L426.202 82.9805L429.519 91.7996C430.631 94.7515 431.779 97.7034 432.854 100.673C435.023 106.668 437.173 112.627 439.178 118.622Z" fill="#263238"/>
<path id="Vector_17" d="M443.333 117.893H407.795V120.17H443.333V117.893Z" fill="#A6A6A6"/>
<path id="Vector_18" d="M426.712 83.1808C423.888 83.3994 421.992 81.9235 418.657 80.9031C413.809 79.4272 395.949 78.8623 388.204 79.4454C385.124 79.6823 378.727 82.4155 374.134 82.4155C369.542 82.4155 363.199 79.6823 360.083 79.4454C352.338 78.8623 334.459 79.4454 329.593 80.9031C326.276 81.9235 324.381 83.3994 321.556 83.1808C316.982 82.8346 316.471 76.366 322.267 76.366C328.062 76.366 329.739 77.4957 337.375 77.3681C340.674 77.3681 360.32 75.0358 365.897 75.0358C368.667 74.9395 371.437 75.2153 374.134 75.8558C376.831 75.2153 379.602 74.9395 382.372 75.0358C387.967 75.0358 407.577 77.3135 410.893 77.3681C418.511 77.4957 420.206 76.366 426.002 76.366C431.797 76.366 431.287 82.8346 426.712 83.1808Z" fill="#C7C7C7"/>
<path id="Vector_19" d="M410 169.222H338.25V181.54H410V169.222Z" fill="#C7C7C7"/>
<path id="Vector_20" d="M406.283 166.179H341.968V169.204H406.283V166.179Z" fill="#A6A6A6"/>
<path id="Vector_21" d="M378.563 166.179H369.706C368.4 159.515 367.923 152.716 368.284 145.935C368.722 133.381 372.439 79.2449 372.439 79.2449H375.829C375.829 79.2449 379.474 133.381 379.984 145.935C380.346 152.716 379.868 159.515 378.563 166.179Z" fill="#C7C7C7"/>
<path id="Vector_22" d="M376.905 71.027C376.905 75.5824 375.756 76.8214 375.756 76.8214H372.512C372.512 76.8214 371.364 75.5824 371.364 71.027C371.364 66.4717 373.515 52.095 373.515 52.095H374.754C374.754 52.095 376.905 66.4717 376.905 71.027Z" fill="#C7C7C7"/>
<path id="Vector_23" d="M378.399 78.662C378.399 79.5053 378.149 80.3297 377.68 81.0309C377.212 81.732 376.546 82.2785 375.766 82.6013C374.987 82.924 374.13 83.0084 373.302 82.8439C372.475 82.6794 371.715 82.2733 371.119 81.677C370.522 81.0807 370.116 80.3209 369.952 79.4938C369.787 78.6667 369.872 77.8094 370.194 77.0303C370.517 76.2512 371.064 75.5853 371.765 75.1168C372.466 74.6483 373.291 74.3982 374.134 74.3982C375.265 74.3982 376.35 74.8474 377.15 75.647C377.95 76.4467 378.399 77.5312 378.399 78.662Z" fill="#A6A6A6"/>
<path id="Vector_24" d="M377.524 52.095C377.524 52.7653 377.325 53.4206 376.953 53.9779C376.58 54.5353 376.051 54.9697 375.432 55.2262C374.812 55.4827 374.131 55.5498 373.473 55.4191C372.815 55.2883 372.211 54.9655 371.737 54.4915C371.263 54.0175 370.94 53.4136 370.81 52.7562C370.679 52.0988 370.746 51.4173 371.003 50.798C371.259 50.1787 371.694 49.6494 372.251 49.277C372.808 48.9046 373.464 48.7058 374.134 48.7058C375.033 48.7058 375.896 49.0629 376.531 49.6985C377.167 50.3341 377.524 51.1961 377.524 52.095Z" fill="#A6A6A6"/>
<path id="Vector_25" d="M598.425 557.119C598.425 566.722 586.98 575.596 573.658 575.596C560.336 575.596 548.873 566.995 548.873 557.119H598.425Z" fill="#455A64"/>
<path id="Vector_26" d="M593.705 554.86C590.06 546.26 586.616 537.623 583.153 528.967C581.331 524.649 579.745 520.294 578.032 515.957L572.947 502.929H574.223L569.138 515.957C567.425 520.294 565.767 524.649 564.017 528.967C560.555 537.623 557.092 546.26 553.465 554.86C556.563 546.059 559.789 537.313 563.033 528.585C564.637 524.212 566.332 519.857 567.972 515.502L572.947 502.437L573.585 500.761L574.223 502.437L579.198 515.502C580.839 519.857 582.534 524.212 584.137 528.585C587.381 537.313 590.625 546.059 593.705 554.86Z" fill="#263238"/>
<path id="Vector_27" d="M599.811 553.767H547.451V557.119H599.811V553.767Z" fill="#37474F"/>
<path id="Vector_28" d="M748.615 557.119C748.615 566.722 737.17 575.596 723.829 575.596C710.489 575.596 699.007 566.995 699.007 557.119H748.615Z" fill="#455A64"/>
<path id="Vector_29" d="M743.895 554.86C740.25 546.26 736.805 537.623 733.343 528.967C731.52 524.649 729.935 520.294 728.222 515.957L723.137 502.929H724.413L719.328 515.957C717.615 520.294 715.956 524.649 714.207 528.967C710.744 537.623 707.263 546.26 703.655 554.86C706.735 546.059 709.96 537.313 713.223 528.585C714.826 524.212 716.521 519.857 718.162 515.502L723.137 502.437L723.775 500.761L724.413 502.437L729.388 515.502C731.028 519.857 732.723 524.212 734.327 528.585C737.571 537.313 740.797 546.059 743.895 554.86Z" fill="#263238"/>
<path id="Vector_30" d="M750 553.767H697.641V557.119H750V553.767Z" fill="#37474F"/>
<path id="Vector_31" d="M725.506 502.637C721.351 502.965 718.562 500.815 713.66 499.266C706.516 497.098 680.181 496.26 668.754 497.135C664.235 497.463 654.813 501.508 648.051 501.508C641.29 501.508 631.849 497.463 627.33 497.135C615.921 496.26 589.586 497.135 582.424 499.266C577.522 500.779 574.733 502.911 570.578 502.637C563.835 502.127 563.069 492.579 571.617 492.579C580.164 492.579 582.552 494.256 593.887 494.073C598.753 494.073 627.676 490.63 635.895 490.63C639.983 490.491 644.07 490.895 648.051 491.832C652.02 490.894 656.095 490.49 660.171 490.63C668.408 490.63 697.331 493.982 702.197 494.073C713.441 494.256 715.938 492.579 724.485 492.579C733.033 492.579 732.267 502.127 725.506 502.637Z" fill="#455A64"/>
<path id="Vector_32" d="M700.903 629.385H595.182V647.552H700.903V629.385Z" fill="#455A64"/>
<path id="Vector_33" d="M695.417 624.921H600.649V629.386H695.417V624.921Z" fill="#37474F"/>
<path id="Vector_34" d="M654.557 624.94H641.527C639.596 615.116 638.892 605.09 639.431 595.093C640.069 576.598 645.555 496.825 645.555 496.825H650.548C650.548 496.825 656.015 576.598 656.672 595.093C657.199 605.091 656.489 615.116 654.557 624.94Z" fill="#455A64"/>
<path id="Vector_35" d="M652.115 484.708C652.115 491.431 650.439 493.253 650.439 493.253H645.646C645.646 493.253 643.969 491.431 643.969 484.708C643.969 477.984 647.122 456.829 647.122 456.829H648.944C648.944 456.829 652.115 478.093 652.115 484.708Z" fill="#455A64"/>
<path id="Vector_36" d="M654.321 495.968C654.321 497.213 653.951 498.429 653.26 499.463C652.568 500.497 651.585 501.303 650.435 501.778C649.285 502.253 648.02 502.377 646.8 502.133C645.579 501.889 644.459 501.288 643.581 500.407C642.702 499.526 642.105 498.404 641.864 497.184C641.624 495.963 641.751 494.698 642.229 493.55C642.708 492.402 643.517 491.421 644.553 490.733C645.59 490.044 646.807 489.678 648.051 489.682C648.876 489.682 649.693 489.845 650.455 490.161C651.216 490.477 651.908 490.94 652.491 491.524C653.073 492.108 653.535 492.802 653.849 493.564C654.163 494.327 654.323 495.144 654.321 495.968Z" fill="#37474F"/>
<path id="Vector_37" d="M653.045 456.829C653.045 457.821 652.75 458.79 652.199 459.615C651.647 460.439 650.864 461.081 649.947 461.46C649.03 461.839 648.021 461.937 647.049 461.742C646.076 461.547 645.183 461.068 644.483 460.366C643.783 459.663 643.307 458.768 643.115 457.795C642.924 456.822 643.026 455.814 643.408 454.899C643.79 453.983 644.435 453.202 645.262 452.654C646.088 452.105 647.059 451.814 648.051 451.818C648.709 451.818 649.359 451.948 649.966 452.2C650.573 452.452 651.125 452.821 651.589 453.287C652.053 453.752 652.42 454.305 652.67 454.913C652.92 455.52 653.047 456.172 653.045 456.829Z" fill="#37474F"/>
<path id="Vector_38" d="M-110 649L37.0107 648.04L183.993 647.68L478.014 647L772.007 647.68L919.018 648.04L1066 649L919.018 650L772.007 650.36L478.014 651L183.993 650.32L37.0107 650L-110 649Z" fill="#263238"/>
<path id="Vector_39" d="M674.605 675.504H499.83V701.269H674.605V675.504Z" fill="#37474F"/>
<path id="Vector_40" d="M664.854 668.161H509.598V675.504H664.854V668.161Z" fill="#455A64"/>
<path id="Vector_41" d="M232.62 305.846H443.68C463.497 305.846 482.502 313.717 496.515 327.728C510.528 341.738 518.401 360.74 518.401 380.554V647.133H157.935V380.536C157.94 360.732 165.809 341.74 179.814 327.734C193.818 313.729 212.812 305.856 232.62 305.846Z" fill="#455A64"/>
<path id="Vector_42" d="M176.67 303.186H125.203V647.097H176.67V303.186Z" fill="#37474F"/>
<path id="Vector_43" d="M157.281 293.668C165.788 290.167 169.846 280.434 166.345 271.928C162.844 263.422 153.109 259.365 144.602 262.865C136.095 266.366 132.036 276.099 135.538 284.605C139.039 293.111 148.774 297.168 157.281 293.668Z" fill="#37474F"/>
<path id="Vector_44" d="M170.419 294.932H131.436V303.186H170.419V294.932Z" fill="#455A64"/>
<path id="Vector_45" d="M551.096 303.186H499.629V647.097H551.096V303.186Z" fill="#37474F"/>
<path id="Vector_46" d="M531.722 293.658C540.229 290.157 544.287 280.424 540.786 271.919C537.285 263.413 527.55 259.355 519.043 262.856C510.535 266.357 506.477 276.09 509.978 284.595C513.48 293.101 523.214 297.159 531.722 293.658Z" fill="#37474F"/>
<path id="Vector_47" d="M544.863 294.932H505.88V303.186H544.863V294.932Z" fill="#455A64"/>
<path id="Vector_48" d="M420.589 348.102C505.607 434.617 566.241 537.386 559.698 561.602C547.506 606.627 486.799 611.492 478.416 600.905C444.591 558.085 411.604 477.619 376.084 387.952C348.31 317.854 370.617 316.56 397.535 337.898C401.362 340.959 417.09 344.53 420.589 348.102Z" fill="#314D74"/>
<path id="Vector_49" opacity="0.1" d="M559.698 561.602C547.506 606.627 486.799 611.492 478.416 600.906C444.591 558.085 411.622 477.62 376.084 387.952C362.635 353.987 360.375 333.288 367.245 327.73L559.607 552.437C560.303 555.449 560.334 558.577 559.698 561.602Z" fill="black"/>
<g id="Group_2" opacity="0.1">
<path id="Vector_50" opacity="0.1" d="M417.527 349.067C415.358 351.199 413.208 353.368 411.167 355.627C409.126 357.887 407.103 360.128 405.226 362.497C401.334 367.084 398.158 372.231 395.803 377.766C394.7 380.566 393.775 383.432 393.033 386.348C392.195 389.246 391.575 392.216 390.901 395.168C390.227 398.119 389.662 401.108 389.078 404.114C388.495 407.121 388.021 410.109 387.511 413.116C387.602 410.054 387.894 407.011 388.167 404.005C388.441 400.998 388.951 397.937 389.425 394.894C390.358 388.816 391.916 382.851 394.072 377.092C395.204 374.197 396.672 371.445 398.446 368.892C400.186 366.346 402.086 363.911 404.132 361.604C408.194 357.014 412.678 352.817 417.527 349.067Z" fill="black"/>
</g>
<g id="Group_3" opacity="0.1">
<path id="Vector_51" opacity="0.1" d="M405.226 361.476C408.013 362.142 410.758 362.976 413.445 363.972C414.812 364.446 416.124 364.993 417.473 365.576C418.192 365.889 418.871 366.286 419.496 366.76C420.115 367.325 420.571 367.817 421.081 368.364C424.9 372.633 428.367 377.203 431.451 382.03C429.373 380.05 427.375 378.009 425.455 375.907L419.733 369.585C419.298 369.073 418.836 368.587 418.347 368.127C417.842 367.729 417.292 367.393 416.707 367.125C415.486 366.469 414.174 365.904 412.898 365.303C410.329 364.027 407.759 362.77 405.226 361.476Z" fill="black"/>
</g>
<g id="Group_4" opacity="0.1">
<path id="Vector_52" opacity="0.1" d="M401.799 365.685C403.148 366.87 404.387 368.109 405.608 369.33C406.829 370.55 408.032 371.808 409.253 372.974C409.556 373.245 409.872 373.501 410.201 373.739L411.258 374.377C412.023 374.869 412.771 375.343 413.463 375.889C414.901 376.941 416.232 378.131 417.436 379.442C415.796 378.732 414.247 377.912 412.698 377.092L410.42 375.889C410.037 375.707 409.654 375.488 409.199 375.215C408.808 374.949 408.431 374.663 408.069 374.359C406.705 373.159 405.482 371.808 404.424 370.332C403.401 368.871 402.522 367.315 401.799 365.685Z" fill="black"/>
</g>
<g id="Group_5" opacity="0.1">
<path id="Vector_53" opacity="0.1" d="M391.885 387.296C393.683 389.872 395.28 392.583 396.66 395.404C397.334 396.807 398.045 398.192 398.701 399.595C399.357 400.998 399.995 402.401 400.761 403.805C399.459 402.847 398.341 401.662 397.462 400.306C394.766 396.378 392.871 391.957 391.885 387.296Z" fill="black"/>
</g>
<path id="Vector_54" opacity="0.1" d="M400.123 367.89C400.123 367.89 411.058 387.934 416.634 391.815C422.211 395.696 435.861 408.925 438.504 404.843C441.146 400.762 428.043 380.609 423.049 375.98C418.056 371.352 403.221 363.645 403.221 363.645L400.123 367.89Z" fill="black"/>
<path id="Vector_55" d="M492.431 591.066C475.117 566.212 483.883 516.777 502.91 398.192C505.552 381.793 630.118 380.499 628.223 398.192C625.799 420.441 603.638 508.377 597.842 521.314C569.612 584.543 504.167 607.903 492.431 591.066Z" fill="#F7A9A0"/>
<path id="Vector_56" d="M634.984 352.038C636.661 376.163 620.787 426.836 612.258 437.587C603.729 448.338 516.651 424.231 511.311 411.203C505.972 398.174 506.628 316.451 520.679 296.207C534.73 275.963 633.253 327.038 634.984 352.038Z" fill="#F7A9A0"/>
<path id="Vector_57" d="M505.334 331.757C516.888 337.315 520.843 327.548 520.843 327.548C520.843 327.548 514.227 351.509 526.019 359.362C537.391 366.924 546.594 348.831 547.269 347.537C546.922 348.812 541.437 370.988 554.085 377.675C567.243 384.599 573.348 364.92 573.749 363.572C573.749 364.884 574.843 382.048 585.613 384.945C604.13 389.902 602.654 345.915 613.716 335.037C613.716 335.037 634.292 351.673 634.984 352.038C634.984 352.038 634.437 310.128 618.946 296.043C616.725 293.956 613.855 292.691 610.815 292.459C607.775 292.227 604.747 293.042 602.234 294.768C602.234 294.768 603.546 281.229 593.742 275.672C588.712 272.811 579.672 278.332 579.672 278.332C579.672 278.332 580.274 267.399 571.252 263.044C564.054 259.509 556.108 265.595 556.108 265.595C556.108 265.595 570.268 211.878 556.6 206.54C533.072 197.32 509.216 313.918 499.046 318.401C493.98 320.606 500.358 329.334 505.334 331.757Z" fill="#F7A9A0"/>
<path id="Vector_58" d="M554.704 266.36C554.85 266.178 554.613 265.941 554.449 266.124C537.737 282.322 524.36 305.245 520.314 328.295C520.187 329.042 521.627 332.322 521.827 331.484C526.857 310.547 539.942 286.131 554.704 266.36Z" fill="#263238"/>
<path id="Vector_59" d="M579.745 277.967C579.891 277.767 579.545 277.494 579.344 277.694C562.213 294.476 547.852 320.715 546.321 347.828C546.321 348.758 547.159 349.65 547.305 348.575C549.693 330.627 566.35 295.697 579.745 277.967Z" fill="#263238"/>
<path id="Vector_60" d="M574.296 365.503C576.775 339.556 587.308 317.016 601.469 295.405C601.651 295.132 601.232 294.895 601.013 295.096C591.209 303.769 583.627 318.474 578.688 330.427C573.887 341.423 572.058 353.487 573.385 365.412C573.439 365.904 574.241 366.068 574.296 365.503Z" fill="#263238"/>
<path id="Vector_61" d="M520.405 327.73C520.26 328.641 522.756 327.293 522.629 328.204C521.298 338.135 519.786 356.01 527.604 358.925C533.892 361.239 541.364 354.425 543.205 350.671L547.852 341.251L546.777 351.71C546.254 356.352 546.494 361.048 547.487 365.613C548.508 370.059 550.713 374.213 554.376 376.126C556.075 377.191 558.089 377.64 560.079 377.398C562.07 377.156 563.917 376.237 565.311 374.796C568.385 371.499 570.568 367.473 571.653 363.098L575.043 351.127L575.754 363.499C575.925 366.94 576.537 370.345 577.576 373.63C578.45 376.781 580.239 379.603 582.716 381.738C583.867 382.655 585.253 383.231 586.715 383.402C588.177 383.573 589.658 383.331 590.99 382.704C593.763 380.852 595.95 378.248 597.295 375.197C600.539 368.929 602.471 361.859 604.749 354.953C605.861 351.491 606.973 347.992 608.248 344.567C609.331 341.047 611.151 337.798 613.588 335.037C611.237 337.843 610.308 341.469 609.196 344.877C608.084 348.284 607.374 351.91 606.517 355.445C605.019 362.664 602.834 369.723 599.993 376.527C598.516 380.252 595.982 383.463 592.703 385.765C590.785 386.817 588.601 387.288 586.42 387.12C584.239 386.951 582.153 386.152 580.419 384.818C577.272 382.254 574.963 378.808 573.786 374.924C572.54 371.286 571.781 367.499 571.526 363.663L575.626 364.064C574.452 369.255 571.939 374.048 568.336 377.967C566.263 380.081 563.518 381.408 560.573 381.72C557.688 381.966 554.796 381.33 552.28 379.898C547.159 377.037 544.626 371.553 543.551 366.578C542.532 361.541 542.348 356.37 543.004 351.272L546.558 352.311C544.061 356.994 536.534 365.54 526.347 363.244C513.608 358.014 519.112 332.322 520.405 327.73Z" fill="#263238"/>
<path id="Vector_62" d="M511.293 411.202C511.293 411.202 473.021 356.392 475.664 333.944C478.307 311.495 523.722 289.994 541.51 284.746C566.077 277.658 568.756 295.879 560.19 306.812C550.294 319.403 529.809 332.559 528.406 333.488C528.406 333.488 562.851 352.238 564.436 380.736C566.022 409.234 511.293 411.202 511.293 411.202Z" fill="#F7A9A0"/>
<path id="Vector_63" d="M508.377 299.523C512.624 296.79 517.07 294.33 521.554 291.998C526.046 289.611 530.67 287.482 535.404 285.62C537.755 284.673 540.179 283.798 542.694 283.088C545.208 282.3 547.81 281.823 550.44 281.666C553.183 281.477 555.936 281.874 558.513 282.833C561.248 283.833 563.54 285.77 564.983 288.299C566.34 290.87 566.832 293.809 566.386 296.681C565.951 299.392 565.032 302.003 563.671 304.389C562.37 306.694 560.837 308.862 559.097 310.857C557.42 312.789 555.67 314.684 553.866 316.506C546.592 323.809 538.269 329.987 529.172 334.836V331.903C533.579 334.048 537.72 336.702 541.51 339.811C545.292 342.861 548.743 346.299 551.807 350.07C553.322 351.96 554.733 353.93 556.035 355.973C557.299 358.031 558.455 360.154 559.497 362.333C561.551 366.674 563.062 371.252 563.999 375.962C561.279 366.867 556.552 358.498 550.166 351.473C547.017 347.999 543.545 344.832 539.797 342.016C536.086 339.232 532.098 336.839 527.896 334.873L524.889 333.525L527.805 331.939C532.126 329.521 536.262 326.787 540.179 323.758C544.122 320.735 547.861 317.454 551.369 313.937C553.192 312.114 554.814 310.292 556.454 308.47C558.049 306.673 559.46 304.719 560.664 302.639C561.82 300.629 562.621 298.435 563.033 296.152C563.436 294.006 563.129 291.786 562.158 289.83C561.119 287.913 559.434 286.428 557.402 285.639C555.237 284.797 552.926 284.394 550.604 284.454C545.702 284.836 540.88 285.91 536.279 287.643C526.723 290.974 517.401 294.943 508.377 299.523Z" fill="#263238"/>
<path id="Vector_64" d="M654.758 482.43L493.852 444.821C493.852 444.821 456.929 573.956 475.245 597.717C483.446 608.34 510.874 638.059 534.165 631.372C566.569 622.079 616.85 582.793 628.241 550.888C634.401 533.614 654.758 482.43 654.758 482.43Z" fill="#314D74"/>
<path id="Vector_65" d="M490.553 480.462C505.826 484.106 521.244 487.058 536.68 489.901C552.116 492.743 567.571 495.64 583.08 498.1C591.846 499.485 600.594 500.925 609.397 502.018C609.634 502.018 609.725 501.672 609.488 501.617C594.252 497.973 578.816 494.948 563.434 491.996C548.052 489.044 532.452 486.256 517.052 483.614C508.304 482.12 499.52 480.79 490.717 479.697C490.298 479.642 490.098 480.353 490.553 480.462Z" fill="#263238"/>
<path id="Vector_66" d="M499.374 441.978C497.114 442.215 494.891 442.689 492.668 443.108C492.496 443.154 492.341 443.247 492.219 443.375C492.097 443.504 492.012 443.664 491.975 443.837C489.497 452.219 487.747 460.91 485.997 469.474C484.248 478.038 482.753 486.42 481.35 494.984C480.585 499.576 479.935 504.168 479.4 508.76C476.618 514.343 474.917 520.402 474.388 526.617C474.388 526.927 474.899 526.981 474.953 526.617C475.638 521.099 477.067 515.699 479.2 510.564C477.802 521.812 478.103 533.206 480.093 544.364C480.093 544.364 480.22 544.364 480.202 544.364C477.359 527.692 481.551 510.29 484.303 493.873C485.669 485.655 487.218 477.474 488.84 469.274C490.462 461.074 492.358 453.002 493.852 444.821C495.766 444.11 497.679 443.4 499.538 442.525C499.597 442.493 499.643 442.442 499.669 442.38C499.694 442.318 499.698 442.249 499.678 442.185C499.659 442.121 499.618 442.065 499.563 442.028C499.508 441.99 499.441 441.973 499.374 441.978Z" fill="#263238"/>
<path id="Vector_67" d="M317.547 125.946C285.562 151.183 271.985 197.174 271.985 197.174C271.985 197.174 238.998 241.324 243.719 267.818C244.915 275.344 247.917 282.467 252.468 288.579C257.02 294.691 262.985 299.609 269.853 302.913L268.759 288.335C268.759 288.335 275.867 307.65 305.828 318.583C335.79 329.516 377.633 324.724 400.068 316.451C413.375 311.614 425.199 303.408 434.385 292.636L424.052 312.369C424.052 312.369 454.068 314.775 475.518 285.037C496.969 255.3 451.152 203.715 447.962 193.366C444.773 183.016 447.561 110.622 370.635 114.285C370.635 114.285 339.562 108.581 317.547 125.946Z" fill="#A6A6A6"/>
<path id="Vector_68" d="M259.064 299.797C250.99 294.786 244.921 285.22 241.532 276.583C237.813 267.42 237.287 257.273 240.037 247.775C243.482 236.386 250.79 226.875 257.897 217.563C265.187 207.943 273.315 198.832 280.478 189.102C280.879 188.555 280.077 187.99 279.603 188.391C271.965 195.483 264.742 203.008 257.97 210.931C251.152 218.11 245.195 226.059 240.219 234.619C235.955 242.509 232.929 251.583 233.695 260.657C234.351 268.11 236.802 275.294 240.839 281.594C245.596 289.155 252.157 294.348 258.553 300.434C258.991 300.762 259.519 300.088 259.064 299.797Z" fill="#A6A6A6"/>
<path id="Vector_69" d="M485.596 253.095C479.6 225.618 457.767 206.121 445.976 181.412C439.597 168.038 435.041 153.534 426.202 141.526C425.947 141.198 425.4 141.526 425.619 141.945C432.909 152.659 436.335 164.94 441.092 176.821C445.848 188.701 452.865 199.707 459.954 210.548C472.839 230.228 488.312 253.496 481.97 278.223C479.054 289.629 470.725 301.674 458.423 303.915C457.95 304.006 458.132 304.79 458.606 304.644C463.513 303.306 468.096 300.983 472.076 297.816C476.055 294.649 479.347 290.704 481.751 286.222C486.979 276.002 488.344 264.24 485.596 253.095Z" fill="#A6A6A6"/>
<path id="Vector_70" d="M485.87 260.329C487.819 250.414 486.667 240.139 482.571 230.902C478.325 221.791 470.871 214.703 463.308 208.289C454.596 200.909 445.32 193.712 440.472 183.162C440.272 182.706 439.616 183.162 439.816 183.526C447.434 201.037 464.656 210.858 475.299 226.018C487.474 243.42 484.813 266.433 473.113 283.397C465.704 293.683 455.977 302.079 444.718 307.905C444.699 307.916 444.682 307.93 444.669 307.948C444.655 307.965 444.645 307.985 444.639 308.006C444.633 308.027 444.632 308.049 444.634 308.071C444.637 308.093 444.644 308.114 444.655 308.133C444.665 308.152 444.68 308.169 444.697 308.183C444.714 308.196 444.734 308.206 444.755 308.212C444.777 308.218 444.799 308.22 444.82 308.217C444.842 308.214 444.863 308.208 444.882 308.197C464.073 298.539 481.86 282.359 485.87 260.329Z" fill="#A6A6A6"/>
<path id="Vector_71" d="M471.891 647.06L450.897 517.688C450.897 517.688 470.944 475.779 449.457 439.336C438.522 420.878 410.875 353.313 377.907 328.988C339.125 300.344 301.892 326.71 287.403 346.334C258.408 385.62 208.6 478.039 198.594 647.079L471.891 647.06Z" fill="#314D74"/>
<path id="Vector_72" d="M342.679 503.731C355.86 503.401 369.047 504.041 382.135 505.644C388.641 506.537 395.038 507.721 401.453 509.051C404.661 509.707 407.868 510.254 411.076 510.873C414.436 511.525 417.863 511.769 421.282 511.602C421.331 511.616 421.375 511.646 421.406 511.687C421.437 511.729 421.453 511.779 421.453 511.83C421.453 511.882 421.437 511.932 421.406 511.973C421.375 512.014 421.331 512.044 421.282 512.058C418.1 512.595 414.884 512.905 411.659 512.987C408.524 512.981 405.394 512.756 402.291 512.313C395.694 511.475 389.151 510.327 382.554 509.434C369.268 507.612 355.983 505.79 342.606 504.897C342.022 504.787 342.059 503.749 342.679 503.731Z" fill="#263238"/>
<path id="Vector_73" d="M311.77 518.964C322.385 516.61 333.124 514.852 343.936 513.698C349.403 513.151 354.762 512.914 360.211 512.805C362.799 512.805 365.405 512.805 368.011 512.805C370.617 512.805 373.715 513.242 376.576 513.242C376.868 513.242 376.923 513.698 376.576 513.716C373.879 513.716 371.109 514.336 368.503 514.572C365.897 514.809 363.036 515.046 360.393 515.283C354.926 515.775 349.604 516.322 344.191 516.759C333.366 517.634 322.595 518.581 311.806 519.857C311.277 520.002 311.223 519.091 311.77 518.964Z" fill="#263238"/>
<g id="Group_6" opacity="0.1">
<path id="Vector_74" opacity="0.1" d="M251.555 415.138C266.645 413.899 281.772 412.842 296.88 411.822L342.241 408.998L364.931 407.759C372.549 407.576 380.13 407.759 387.712 408.105C402.85 408.785 417.965 409.818 433.055 411.202L410.365 410.273C402.802 409.963 395.22 409.69 387.657 409.508C380.094 409.326 372.531 409.143 365.004 409.417L342.332 410.802L296.953 413.207C281.826 413.936 266.7 414.646 251.555 415.138Z" fill="black"/>
<path id="Vector_75" opacity="0.1" d="M286.948 412.97C284.688 427.438 282.246 441.869 279.803 456.3L272.386 499.595C271.183 506.792 269.798 514.026 268.923 521.223C268.049 528.421 267.866 535.8 267.374 543.089L264.859 586.948C265.005 572.298 265.376 557.654 265.971 543.016C266.263 535.728 266.609 528.439 267.265 521.059C267.921 513.68 269.415 506.482 270.6 499.303C273.151 484.89 275.703 470.459 278.437 456.082C281.17 441.705 283.94 427.31 286.948 412.97Z" fill="black"/>
<path id="Vector_76" opacity="0.1" d="M296.096 412.97C295.586 420.404 294.893 427.82 294.274 435.237L292.178 457.467C291.297 464.845 290.835 472.267 290.793 479.697L290.538 490.848C290.392 494.493 290.301 498.283 290.1 502.018C289.882 498.374 289.791 494.565 289.645 490.848L289.39 479.66C289.225 472.194 289.554 464.725 290.374 457.303C291.139 449.887 291.923 442.47 292.889 435.091C293.855 427.711 294.839 420.313 296.096 412.97Z" fill="black"/>
<path id="Vector_77" opacity="0.1" d="M415.851 410.127C419.805 416.888 423.414 423.848 426.785 430.918C428.498 434.453 430.029 438.061 431.487 441.705C433.007 445.353 434.286 449.096 435.314 452.911C436.107 456.802 436.48 460.767 436.426 464.737C436.426 468.673 436.536 472.59 436.426 476.49C436.244 484.325 435.879 492.142 435.205 499.941L435.041 476.49C434.932 472.59 435.041 468.691 434.786 464.792C434.781 460.945 434.372 457.11 433.565 453.349C431.455 445.863 428.768 438.553 425.528 431.483C424.015 427.839 422.393 424.322 420.771 420.769C419.149 417.216 417.491 413.681 415.851 410.127Z" fill="black"/>
<path id="Vector_78" opacity="0.1" d="M409.508 410.127C411.331 414.701 412.989 419.347 414.575 423.994C416.16 428.64 417.618 433.36 418.967 438.097C419.685 440.49 420.257 442.924 420.68 445.386C420.972 447.864 421.172 450.306 421.282 452.784C421.518 457.703 421.646 462.623 421.518 467.543C421.19 465.101 420.954 462.66 420.644 460.254L419.878 452.966C419.568 450.542 419.368 448.083 418.967 445.677C418.493 443.3 417.885 440.952 417.145 438.644L413.153 424.468C411.932 419.675 410.638 414.92 409.508 410.127Z" fill="black"/>
</g>
<path id="Vector_79" d="M268.212 347.792C189.245 422.791 87.7882 582.684 104.646 616.303C123.417 653.766 233.403 548.574 233.203 542.214C233.057 537.422 273.716 439.628 304.461 368.528C335.206 297.428 287.749 329.243 268.212 347.792Z" fill="#F7A9A0"/>
<path id="Vector_80" d="M233.914 542.36C237.559 531.883 292.706 402.966 308.635 362.169C322.905 325.525 318.276 312.843 284.943 332.067C280.915 334.381 259.428 340.412 252.794 346.772C212.117 385.62 110.35 498.501 87.3691 564.882C65.2261 628.821 118.606 635.836 163.457 607.483C200.162 584.269 233.914 542.36 233.914 542.36Z" fill="#314D74"/>
<path id="Vector_81" d="M226.861 559.033C231.259 546.654 235.876 534.379 240.711 522.207C245.486 509.999 250.462 497.882 255.473 485.764C260.485 473.647 265.679 461.621 271.001 449.631C276.322 437.642 281.753 425.725 287.403 413.899C283.053 426.326 278.461 438.613 273.625 450.761C268.85 462.969 263.857 475.087 258.845 487.204C253.833 499.321 248.639 511.347 243.318 523.337C237.996 535.327 232.565 547.207 226.861 559.033Z" fill="#263238"/>
<path id="Vector_82" d="M276.195 442.197C277.674 439.066 279.437 436.077 281.462 433.269C283.449 430.442 285.623 427.752 287.968 425.215C287.387 426.864 286.642 428.451 285.745 429.952C284.888 431.465 283.922 432.904 282.956 434.325C280.98 437.175 278.714 439.813 276.195 442.197Z" fill="#263238"/>
<path id="Vector_83" opacity="0.1" d="M269.269 356.903C264.326 357.587 259.66 359.595 255.765 362.715C249.878 367.726 237.303 387.114 240.803 392.106C244.302 397.099 249.332 389.464 255.036 383.852C260.74 378.24 272.696 361.148 272.696 361.148L269.269 356.903Z" fill="black"/>
<path id="Vector_84" opacity="0.1" d="M279.967 376.053C278.527 376.255 277.167 376.84 276.031 377.748C274.318 379.206 270.655 384.854 271.675 386.312C272.696 387.77 275.32 386.622 276.924 384.982C278.528 383.342 280.97 377.292 280.97 377.292L279.967 376.053Z" fill="black"/>
<g id="Group_7" opacity="0.1">
<path id="Vector_85" opacity="0.1" d="M256.968 344.53C261.799 348.294 266.265 352.504 270.308 357.103C272.369 359.399 274.269 361.834 275.994 364.392C277.771 366.939 279.244 369.685 280.387 372.573C282.537 378.339 284.088 384.31 285.016 390.394C285.508 393.4 285.927 396.443 286.273 399.504C286.619 402.565 286.856 405.59 286.947 408.615C286.437 405.608 285.963 402.602 285.362 399.614C284.761 396.625 284.25 393.637 283.539 390.667C282.829 387.697 282.227 384.745 281.407 381.848C280.648 378.934 279.717 376.069 278.619 373.265C276.262 367.736 273.093 362.589 269.215 357.996C267.392 355.627 265.315 353.368 263.255 351.126C261.196 348.885 259.155 346.68 256.968 344.53Z" fill="black"/>
</g>
<g id="Group_8" opacity="0.1">
<path id="Vector_86" opacity="0.1" d="M269.269 356.903C266.736 358.251 264.167 359.508 261.597 360.711C260.321 361.33 259.027 361.913 257.788 362.533C257.211 362.798 256.667 363.128 256.166 363.517C255.729 363.918 255.218 364.483 254.763 364.993L249.058 371.297C247.126 373.411 245.14 375.452 243.044 377.42C246.132 372.596 249.6 368.027 253.414 363.754C253.924 363.225 254.38 362.715 255 362.169C255.622 361.681 256.309 361.282 257.041 360.984C258.371 360.383 259.701 359.836 261.05 359.362C263.744 358.397 266.488 357.576 269.269 356.903Z" fill="black"/>
</g>
<g id="Group_9" opacity="0.1">
<path id="Vector_87" opacity="0.1" d="M272.696 361.148C271.949 362.761 271.039 364.294 269.98 365.722C268.916 367.193 267.693 368.543 266.335 369.749C265.978 370.059 265.6 370.345 265.205 370.605C264.817 370.852 264.416 371.077 264.003 371.279L261.706 372.482C260.175 373.302 258.626 374.122 256.968 374.832C258.173 373.526 259.504 372.342 260.941 371.298C261.652 370.751 262.399 370.259 263.146 369.785C263.547 369.548 263.93 369.33 264.221 369.129C264.544 368.891 264.855 368.635 265.151 368.364C266.408 367.307 267.611 366.032 268.796 364.811C269.98 363.59 271.347 362.333 272.696 361.148Z" fill="black"/>
</g>
<g id="Group_10" opacity="0.1">
<path id="Vector_88" opacity="0.1" d="M282.628 382.759C281.655 387.433 279.753 391.863 277.033 395.787C276.154 397.137 275.036 398.317 273.735 399.267C274.5 397.864 275.138 396.461 275.812 395.058C276.486 393.655 277.161 392.27 277.853 390.886C279.231 388.056 280.827 385.339 282.628 382.759Z" fill="black"/>
</g>
<g id="hand">
<path id="Vector_89" d="M326.696 629.987L468.083 544.529L458.442 527.801L313.647 607.411L326.696 629.987Z" fill="#37474F"/>
<path id="Vector_90" d="M488.493 579.855L569.129 533.345L518.677 445.905L438.041 492.415L488.493 579.855Z" fill="#37474F"/>
<path id="Vector_91" d="M499.89 615.326L594.134 560.968L582.878 541.46L488.634 595.818L499.89 615.326Z" fill="#37474F"/>
<path id="Vector_92" d="M496.356 585.086L569.715 542.774L565.489 535.45L492.131 577.762L496.356 585.086Z" fill="#263238"/>
<path id="Vector_93" d="M582.861 541.486L569.703 542.798L496.349 585.108L488.64 595.84L582.861 541.486Z" fill="#455A64"/>
<path id="Vector_94" d="M507.281 410.498L413.038 464.856L424.294 484.365L518.537 430.007L507.281 410.498Z" fill="#37474F"/>
<path id="Vector_95" d="M510.787 440.734L437.444 483.036L441.67 490.36L515.013 448.057L510.787 440.734Z" fill="#263238"/>
<path id="Vector_96" d="M424.289 484.325L437.447 483.031L510.801 440.721L518.528 429.97L424.289 484.325Z" fill="#455A64"/>
<path id="Vector_97" d="M447.555 563.816L471.329 550.104L455.22 522.183L431.445 535.895L447.555 563.816Z" fill="#455A64"/>
<path id="Vector_98" d="M103.534 614.754C120.538 639.498 167.321 644.582 284.104 668.416C300.251 671.732 354.197 564.025 337.138 559.616C315.633 554.058 231.016 537.167 224.674 536.711C171.148 532.848 91.9799 597.917 103.534 614.754Z" fill="#F7A9A0"/>
<path id="Vector_99" d="M447.033 589.426C448.855 601.871 437.028 607.447 437.028 607.447C437.028 607.447 443.68 614.954 443.242 624.575C442.732 635.599 425.218 639.644 425.218 639.644C428.324 645.506 429.594 652.166 428.863 658.758C427.314 669.254 410.219 675.85 410.219 675.85C410.219 675.85 410.438 686.874 402.929 694.691C389.99 708.066 362.197 702.125 344.483 698.536C326.768 694.946 279.84 668.197 270.436 663.952L292.488 550.122C292.488 550.122 376.467 543.636 396.678 550.797C413.718 556.901 445.101 575.468 447.033 589.426Z" fill="#F7A9A0"/>
<path id="Vector_100" d="M436.572 605.479C420.006 594.71 401.143 589.426 382.627 583.067C382.544 583.053 382.46 583.071 382.389 583.115C382.318 583.159 382.265 583.227 382.241 583.307C382.216 583.387 382.222 583.474 382.256 583.55C382.29 583.626 382.351 583.688 382.426 583.723C400.906 589.809 417.946 599.502 436.153 606.317C436.261 606.352 436.378 606.348 436.482 606.304C436.587 606.26 436.673 606.18 436.724 606.079C436.774 605.977 436.787 605.861 436.759 605.751C436.731 605.641 436.665 605.544 436.572 605.479Z" fill="#263238"/>
<path id="Vector_101" d="M425.127 638.077C421.131 635.997 416.879 634.453 412.479 633.485C407.886 632.161 403.276 630.947 398.647 629.841C389.376 627.484 380.051 625.377 370.672 623.518C370.271 623.427 370.034 624.047 370.471 624.156C379.693 626.507 388.896 629.003 398.027 631.736C402.583 633.109 407.139 634.512 411.695 635.945C415.898 637.576 420.268 638.737 424.726 639.407C424.903 639.46 425.093 639.441 425.255 639.354C425.418 639.267 425.539 639.119 425.592 638.943C425.645 638.766 425.626 638.576 425.539 638.414C425.451 638.251 425.303 638.13 425.127 638.077Z" fill="#263238"/>
<path id="Vector_102" d="M409.855 675.741C406.611 673.591 401.982 673.062 398.246 672.206C393.993 671.222 389.741 670.22 385.488 669.199C377.014 667.14 368.558 665.081 360.156 662.749C359.737 662.621 359.536 663.277 359.956 663.387C368.467 665.81 376.941 668.361 385.47 670.675C389.662 671.817 393.86 672.947 398.063 674.064C401.708 674.994 405.991 676.579 409.727 676.123C409.767 676.114 409.803 676.095 409.833 676.068C409.863 676.04 409.885 676.006 409.898 675.968C409.911 675.929 409.913 675.888 409.906 675.849C409.898 675.809 409.881 675.772 409.855 675.741Z" fill="#263238"/>
<path id="Vector_103" d="M318.258 542.561L204.408 698.135C204.408 698.135 99.197 638.66 88.6449 612.494C81.191 593.817 163.202 533.413 222.633 535.746L318.258 542.561Z" fill="#314D74"/>
<path id="Vector_104" d="M151.648 557.848C160.414 550.05 188.352 534.798 222.724 535.655C223.015 535.655 223.088 536.147 222.724 536.165C197.082 537.987 160.96 551.471 151.885 558.249C151.684 558.431 151.429 558.049 151.648 557.848Z" fill="#263238"/>
<path id="Vector_105" d="M197.956 650.067C207.178 635.927 217.147 622.297 227.116 608.704C237.085 595.111 247.163 581.463 257.478 568.089C263.328 560.545 269.142 552.965 275.247 545.622C275.411 545.421 275.776 545.622 275.63 545.859C266.427 559.98 256.494 573.664 246.598 587.312C236.702 600.96 226.551 614.644 216.4 628.055C210.641 635.672 204.718 643.161 198.631 650.522C198.357 650.887 197.683 650.486 197.956 650.067Z" fill="#263238"/>
<path id="Vector_106" d="M318.294 541.066C311.839 539.812 305.305 539.002 298.739 538.643C292.196 538.078 285.635 537.623 279.074 537.24C266.007 536.475 238.433 533.359 214.723 535.8C214.45 535.8 215.926 536.967 216.181 536.93C227.426 535.108 310.002 543.144 316.69 542.961C316.463 543.421 316.268 543.896 316.107 544.383C315.998 544.729 316.38 545.112 316.708 544.838C317.474 544.201 318.002 543.435 318.731 542.743C318.868 542.625 318.968 542.471 319.022 542.299C319.075 542.127 319.08 541.943 319.034 541.769C318.989 541.594 318.895 541.436 318.764 541.312C318.633 541.188 318.471 541.103 318.294 541.066Z" fill="#263238"/>
</g>
<path id="Vector_107" d="M298.065 325.544L378.691 407.285L394.181 335.328C394.181 335.328 373.168 316.378 346.105 316.378C322.577 316.378 298.065 325.544 298.065 325.544Z" fill="#EBEBEB"/>
<path id="Vector_108" d="M321.757 331.32C322.814 336.677 344.574 370.15 368.703 365.776C385.67 362.697 380.677 328.477 380.677 328.477L393.143 280.919L334.222 240.541C334.222 240.541 321.319 329.042 321.757 331.32Z" fill="#F7A9A0"/>
<path id="Vector_109" d="M329.721 271.626C334.147 283.718 341.015 294.769 349.898 304.092C358.78 313.415 369.487 320.81 381.351 325.817L393.143 280.919L334.222 240.541C334.222 240.541 332.181 254.589 329.721 271.626Z" fill="#263238"/>
<path id="Vector_110" d="M456.765 206.758C467.59 286.568 420.917 302.02 403.677 304.334C388.022 306.411 334.423 311.622 315.414 233.27C296.406 154.918 330.158 124.78 365.715 118.111C401.271 111.442 445.958 126.949 456.765 206.758Z" fill="#F7A9A0"/>
<path id="Vector_111" d="M436.444 197.848C434.608 197.666 432.783 197.386 430.977 197.01C428.993 196.978 427.073 196.3 425.51 195.078C425.09 194.601 424.842 193.998 424.806 193.364C424.77 192.73 424.947 192.102 425.309 191.58C426.968 189.43 429.665 189.193 432.235 189.503C434.832 189.732 437.253 190.913 439.032 192.819C439.424 193.281 439.669 193.848 439.738 194.45C439.806 195.051 439.695 195.659 439.418 196.198C439.141 196.736 438.711 197.18 438.182 197.474C437.652 197.767 437.048 197.898 436.444 197.848Z" fill="#A6A6A6"/>
<path id="Vector_112" d="M380.914 202.64C382.76 202.249 384.585 201.763 386.381 201.183C388.359 200.935 390.199 200.037 391.612 198.632C391.965 198.106 392.136 197.478 392.096 196.845C392.057 196.213 391.809 195.611 391.393 195.133C390.427 194.305 389.256 193.751 388.002 193.53C386.749 193.309 385.459 193.428 384.267 193.876C381.713 194.398 379.445 195.853 377.907 197.957C377.59 198.451 377.422 199.025 377.423 199.611C377.423 200.197 377.591 200.77 377.908 201.263C378.225 201.756 378.676 202.148 379.209 202.392C379.742 202.636 380.333 202.723 380.914 202.64Z" fill="#A6A6A6"/>
<path id="Vector_113" d="M393.835 219.732C393.835 219.531 393.416 220.023 393.452 220.242C394.072 225.708 393.872 232.104 389.042 234.327C388.896 234.327 388.933 234.673 389.042 234.619C395.111 233.27 395.311 224.816 393.835 219.732Z" fill="#263238"/>
<path id="Vector_114" d="M388.441 214.393C379.547 214.393 380.312 232.214 388.55 232.159C396.788 232.104 395.913 214.357 388.441 214.393Z" fill="#263238"/>
<path id="Vector_115" d="M384.996 215.486C383.484 216.561 382.044 218.384 380.167 218.657C378.016 218.967 376.303 217.163 374.809 215.45C374.645 215.268 374.499 215.45 374.499 215.669C374.608 219.058 376.066 222.502 379.748 222.848C383.101 223.176 385.361 220.06 386.071 216.598C386.199 215.96 385.543 215.049 384.996 215.486Z" fill="#263238"/>
<path id="Vector_116" d="M425.637 217.527C425.637 217.308 426.075 217.764 426.075 218.001C426.075 223.467 427.041 229.808 432.089 231.466C432.253 231.466 432.253 231.794 432.089 231.776C425.856 231.12 424.671 222.72 425.637 217.527Z" fill="#263238"/>
<path id="Vector_117" d="M430.266 211.587C439.105 210.603 440.436 228.333 432.234 229.244C424.033 230.155 422.849 212.407 430.266 211.587Z" fill="#263238"/>
<path id="Vector_118" d="M434.057 212.48C435.533 213.318 437.046 214.921 438.723 214.903C440.399 214.885 441.985 212.862 443.078 210.931C443.188 210.73 443.352 210.931 443.37 211.113C443.716 214.502 442.86 218.11 439.725 219.003C436.59 219.896 434.385 217.053 433.328 213.755C433.055 213.136 433.456 212.152 434.057 212.48Z" fill="#263238"/>
<path id="Vector_119" d="M398.646 264.903C399.959 266.196 401.271 267.982 403.275 268.164C405.329 268.128 407.353 267.662 409.217 266.798C409.254 266.773 409.298 266.763 409.342 266.768C409.387 266.774 409.427 266.796 409.456 266.83C409.485 266.863 409.501 266.906 409.501 266.951C409.5 266.995 409.483 267.038 409.454 267.071C408.661 268.153 407.59 269 406.355 269.523C405.12 270.046 403.766 270.225 402.437 270.041C401.315 269.745 400.306 269.124 399.537 268.254C398.768 267.385 398.274 266.308 398.118 265.158C398.027 264.903 398.446 264.739 398.646 264.903Z" fill="#263238"/>
<path id="Vector_120" d="M420.589 243.802C420.589 243.802 422.174 251.947 422.411 255.829C422.411 256.193 421.5 256.412 420.188 256.557C420.188 256.557 420.079 256.557 420.024 256.557C416.737 257.328 413.301 257.186 410.089 256.145C406.876 255.105 404.01 253.206 401.799 250.654C401.508 250.289 401.982 249.852 402.346 250.089C407.668 253.551 413.39 254.225 419.459 253.988C419.678 252.895 416.288 240.122 416.889 240.049C419.003 239.739 423.268 240.96 425.819 241.561C423.013 224.488 417.473 207.997 414.885 190.942C414.869 190.817 414.898 190.691 414.967 190.586C415.036 190.481 415.141 190.404 415.261 190.369C415.382 190.334 415.511 190.343 415.626 190.394C415.741 190.446 415.833 190.537 415.887 190.651C422.922 207.524 426.585 227.093 429.938 244.659C430.321 246.864 422.174 244.386 420.589 243.802Z" fill="#263238"/>
<path id="Vector_121" d="M318.112 236.969C335.589 228.387 336.045 209.965 336.045 209.965C349.873 203.639 361.768 193.746 370.508 181.303C369.997 182.961 366.352 194.86 364.293 200.873C414.721 190.596 429.701 151.675 429.701 151.675C446.377 167.746 449.748 178.151 452.3 183.326C452.3 183.326 452.136 152.349 435.898 131.868C415.851 106.796 349.877 101.038 319.916 134.656C287.603 170.953 318.112 236.969 318.112 236.969Z" fill="#A6A6A6"/>
<path id="Vector_122" d="M409.235 223.85L406.921 221.408C410.365 217.764 418.621 212.607 425.145 218.784L422.94 221.335C417.035 215.814 409.49 223.522 409.235 223.85Z" fill="#37474F"/>
<path id="Vector_123" d="M297.172 248.376L293.818 247.629C294.164 246.044 297.463 232.195 304.571 229.025C311.241 226.073 357.076 218.493 359.008 218.092L359.573 221.499C346.433 223.65 311.132 229.808 305.974 232.104C301.272 234.273 298.065 244.568 297.172 248.376Z" fill="#37474F"/>
<path id="Vector_124" d="M380.896 243.493C375.155 243.183 369.961 241.98 366.954 239.721C358.753 233.562 353.704 210.694 353.486 209.728L353.012 207.505H355.29C357.021 207.505 398.081 207.688 407.522 216.762C412.607 221.627 409.964 233.671 406.556 237.297C402.346 241.762 390.828 244.003 380.896 243.493ZM357.586 211.186C359.409 218.584 363.856 232.815 369.159 236.805C376.303 242.162 398.956 240.031 403.877 234.783C406.246 232.268 408.269 222.538 404.989 219.404C398.446 213.136 370.489 211.405 357.586 211.186Z" fill="#37474F"/>
<path id="Vector_125" d="M437.556 236.149C433.733 236.167 430.042 234.756 427.204 232.195C425.125 229.609 423.707 226.555 423.072 223.298C422.436 220.041 422.604 216.678 423.56 213.5C427.332 203.351 452.3 199.014 455.125 198.559L457.293 198.212V200.399C457.293 201.31 456.856 222.738 453.357 229.553C451.698 232.815 447.689 235.129 442.422 235.894C440.812 236.139 439.183 236.225 437.556 236.149ZM453.576 202.567C445.374 204.171 429.391 208.471 427.059 214.776C424.963 220.388 427.769 227.531 429.865 229.681C431.961 231.831 436.955 233.015 441.894 232.305C445.939 231.722 449.001 230.082 450.113 227.932C452.427 223.394 453.339 209.692 453.576 202.567Z" fill="#37474F"/>
<path id="Vector_126" d="M329.046 232.104C329.046 232.104 310.257 207.815 299.14 214.63C288.023 221.445 303.003 257.195 316.635 261.532C318.339 262.208 320.161 262.534 321.993 262.49C323.825 262.446 325.629 262.034 327.298 261.277C328.967 260.52 330.466 259.434 331.706 258.085C332.946 256.735 333.901 255.15 334.514 253.423L329.046 232.104Z" fill="#F7A9A0"/>
<path id="Vector_127" d="M303.696 224.816C303.495 224.816 303.459 225.107 303.696 225.162C313.282 228.533 318.658 236.988 322.54 245.843C319.588 242.49 315.688 240.778 311.186 244.313C310.949 244.495 311.186 244.877 311.478 244.805C313.104 244.203 314.877 244.118 316.554 244.561C318.231 245.005 319.729 245.955 320.845 247.283C322.69 249.537 324.291 251.98 325.62 254.571C326.094 255.391 327.588 254.863 327.224 253.915L327.133 253.697C326.75 241.707 316.635 225.417 303.696 224.816Z" fill="#263238"/>
<path id="Vector_128" d="M380.987 325.033L365.66 358.998L324.545 313.445L311.788 326.965C311.788 326.965 350.916 398.229 351.281 395.095L366.772 365.94L386.454 387.533L386.965 335.438L380.987 325.033Z" fill="#EBEBEB"/>
<path id="Vector_129" d="M388.167 361.75C387.967 353.149 388.003 344.476 387.402 335.893C387.402 335.584 386.91 335.438 386.819 335.784C384.759 344.002 385.707 376.91 385.343 384.763V384.672C384.522 383.743 367.118 365.631 366.863 365.904C363.564 370.514 352.283 391.76 351.408 393.71C345.23 382.394 318.859 337.716 311.423 326.947C311.387 326.877 311.324 326.824 311.249 326.8C311.174 326.776 311.092 326.783 311.022 326.819C310.952 326.855 310.899 326.918 310.875 326.993C310.852 327.068 310.858 327.15 310.895 327.22C316.362 339.119 350.315 398.047 350.825 397.919C351.171 398.211 365.277 372.045 367.045 367.052C369.961 370.97 387.511 391.305 387.639 390.029C388.307 380.618 388.483 371.179 388.167 361.75Z" fill="#263238"/>
</g>
</g>
<defs>
<clipPath id="clip0">
<rect width="750" height="703" fill="white"/>
</clipPath>
</defs>
</svg>
